<svg xmlns="http://www.w3.org/2000/svg" version="1.1" xmlns:xlink="http://www.w3.org/1999/xlink" xmlns:svgjs="http://svgjs.dev/svgjs" width="1500" height="1500" viewBox="0 0 1500 1500"><g transform="matrix(1,0,0,1,-0.323615160350073,-0.3236151603499593)"><svg viewBox="0 0 343 343" data-background-color="#ffffff" preserveAspectRatio="xMidYMid meet" height="1500" width="1500" xmlns="http://www.w3.org/2000/svg" xmlns:xlink="http://www.w3.org/1999/xlink"><g id="tight-bounds" transform="matrix(1,0,0,1,0.0740000000000407,0.07400000000001228)"><svg viewBox="0 0 342.85155851775386 342.85155851775386" height="342.85155851775386" width="342.85155851775386"><g><svg></svg></g><g><svg viewBox="0 0 342.85155851775386 342.85155851775386" height="342.85155851775386" width="342.85155851775386"><g><path d="M0 171.426c0-94.676 76.75-171.426 171.426-171.426 94.676 0 171.426 76.75 171.426 171.426 0 94.676-76.75 171.426-171.426 171.426-94.676 0-171.426-76.75-171.426-171.426zM171.426 340.822c93.555 0 169.396-75.841 169.396-169.396 0-93.555-75.841-169.396-169.396-169.397-93.555 0-169.396 75.841-169.397 169.397 0 93.555 75.841 169.396 169.397 169.396z" data-fill-palette-color="tertiary" fill="#ffffff" stroke="transparent"></path><ellipse rx="164.56874808852186" ry="164.56874808852186" cx="171.42577925887693" cy="171.42577925887693" fill="#ffffff" stroke="transparent" stroke-width="0" fill-opacity="1" data-fill-palette-color="tertiary"></ellipse></g><g transform="matrix(1,0,0,1,64.84655864529837,156.96503337152308)"><svg viewBox="0 0 213.1584412271571 28.92149177470769" height="28.92149177470769" width="213.1584412271571"><g><svg viewBox="0 0 213.1584412271571 28.92149177470769" height="28.92149177470769" width="213.1584412271571"><g><svg viewBox="0 0 260.25643715560386 35.311781992669026" height="28.92149177470769" width="213.1584412271571"><g transform="matrix(1,0,0,1,47.09799592844678,3.9186775170894474)"><svg viewBox="0 0 213.1584412271571 27.47442695849013" height="27.47442695849013" width="213.1584412271571"><g id="textblocktransform"><svg viewBox="0 0 213.1584412271571 27.47442695849013" height="27.47442695849013" width="213.1584412271571" id="textblock"><g><svg viewBox="0 0 213.1584412271571 27.47442695849013" height="27.47442695849013" width="213.1584412271571"><g transform="matrix(1,0,0,1,0,0)"><svg width="213.1584412271571" viewBox="1.9499999999999997 -35.16 275.19 35.48" height="27.47442695849013" data-palette-color="#000000"><path d="M10.62 0.32L10.62 0.32Q6.15 0.32 4.22-1.12 2.29-2.56 2.17-5.88L2.17-5.88Q1.73-17.43 2.17-28.98L2.17-28.98Q2.29-32.01 4.25-33.58 6.2-35.16 10.57-35.16L10.57-35.16Q15.09-35.16 17.15-33.72 19.21-32.28 19.31-28.96L19.31-28.96Q19.36-28.15 19.36-26.97 19.36-25.78 19.32-24.6 19.29-23.41 19.26-22.58L19.26-22.58 15.87-22.58Q15.92-24.17 15.93-26.05 15.94-27.93 15.87-29.52L15.87-29.52Q15.84-30.98 14.66-31.62 13.48-32.25 10.57-32.25L10.57-32.25Q7.91-32.25 6.77-31.62 5.64-30.98 5.57-29.52L5.57-29.52Q5.18-17.43 5.57-5.32L5.57-5.32Q5.64-3.88 6.77-3.23 7.91-2.59 10.62-2.59L10.62-2.59Q13.67-2.59 14.9-3.23 16.14-3.88 16.21-5.32L16.21-5.32Q16.28-7.03 16.22-9 16.16-10.96 16.09-12.67L16.09-12.67 19.56-12.67Q19.68-10.96 19.7-9.29 19.73-7.62 19.6-5.88L19.6-5.88Q19.46-2.56 17.37-1.12 15.28 0.32 10.62 0.32ZM30.73 0.29L30.73 0.29Q26.76 0.29 25.12-1.07 23.48-2.44 23.36-5.62L23.36-5.62Q23.22-7.42 23.17-9.63 23.12-11.84 23.17-14.09 23.22-16.33 23.36-18.16L23.36-18.16Q23.48-21.34 25.13-22.71 26.78-24.07 30.73-24.07L30.73-24.07Q34.74-24.07 36.34-22.71 37.94-21.34 38.06-18.16L38.06-18.16Q38.21-16.36 38.25-14.15 38.3-11.94 38.25-9.7 38.21-7.47 38.06-5.62L38.06-5.62Q37.94-2.47 36.34-1.09 34.74 0.29 30.73 0.29ZM30.73-2.44L30.73-2.44Q32.98-2.44 33.93-2.99 34.89-3.54 34.96-4.81L34.96-4.81Q35.2-8.62 35.2-11.89 35.2-15.16 34.96-18.97L34.96-18.97Q34.89-20.26 33.96-20.8 33.03-21.34 30.73-21.34L30.73-21.34Q28.44-21.34 27.5-20.8 26.56-20.26 26.49-18.97L26.49-18.97Q26.27-15.16 26.25-11.88 26.24-8.59 26.49-4.81L26.49-4.81Q26.54-3.54 27.52-2.99 28.51-2.44 30.73-2.44ZM47.72 0.29L47.72 0.29Q44.97 0.29 43.62-0.93 42.28-2.15 42.21-4.96L42.21-4.96Q42.11-6.96 42.07-9.35 42.04-11.74 42.07-14.21 42.11-16.67 42.21-18.82L42.21-18.82Q42.28-21.66 43.66-22.86 45.04-24.07 47.77-24.07L47.77-24.07Q49.8-24.07 50.96-23.45 52.12-22.83 52.97-21.53L52.97-21.53 53.61-21.53 53.61-31.69 56.73-31.69 56.73 0 53.61 0 53.61-2.25 52.9-2.25Q52.07-1.03 50.91-0.37 49.75 0.29 47.72 0.29ZM48.63-2.37L48.63-2.37Q52.31-2.37 53.61-4.59L53.61-4.59 53.61-19.19Q52.34-21.41 48.65-21.41L48.65-21.41Q46.94-21.41 46.17-20.86 45.41-20.31 45.38-19.09L45.38-19.09Q45.23-15.43 45.26-11.66 45.28-7.89 45.38-4.69L45.38-4.69Q45.43-3.49 46.17-2.93 46.92-2.37 48.63-2.37ZM68.67 0.29L68.67 0.29Q64.64 0.29 62.92-0.98 61.2-2.25 61.08-5.13L61.08-5.13Q60.98-6.93 60.94-9.38 60.91-11.82 60.94-14.28 60.98-16.75 61.08-18.58L61.08-18.58Q61.2-21.53 62.97-22.8 64.74-24.07 68.67-24.07L68.67-24.07Q72.38-24.07 74.04-22.83 75.7-21.58 75.87-18.73L75.87-18.73Q75.92-17.87 75.97-15.75 76.02-13.62 75.82-11.23L75.82-11.23 64.13-11.23Q64.13-9.69 64.15-8.11 64.18-6.52 64.25-4.81L64.25-4.81Q64.27-3.47 65.28-2.95 66.28-2.44 68.57-2.44L68.57-2.44Q70.84-2.44 71.77-2.95 72.7-3.47 72.8-4.81L72.8-4.81Q72.87-6.15 72.8-8.47L72.8-8.47 75.82-8.47Q75.94-7.76 75.93-6.82 75.92-5.88 75.87-5.13L75.87-5.13Q75.7-2.25 74.13-0.98 72.55 0.29 68.67 0.29ZM64.13-13.82L64.13-13.82 72.84-13.82Q72.89-15.48 72.89-16.99 72.89-18.51 72.8-19.07L72.8-19.07Q72.7-20.29 71.75-20.81 70.79-21.34 68.67-21.34L68.67-21.34Q66.3-21.34 65.29-20.81 64.27-20.29 64.25-19.07L64.25-19.07Q64.18-17.65 64.14-16.36 64.1-15.06 64.13-13.82ZM87.93-31.74L87.93 0 84.54 0 84.54-31.74 77.87-31.74 77.87-34.86 94.62-34.86 94.62-31.74 87.93-31.74ZM100.26-19.19L100.26 0 97.11 0 97.11-31.69 100.26-31.69 100.26-21.53 101.01-21.53Q101.87-22.83 103-23.45 104.14-24.07 106.12-24.07L106.12-24.07Q108.87-24.07 110.22-22.86 111.56-21.66 111.56-18.82L111.56-18.82 111.56 0 108.43 0 108.43-19.09Q108.43-20.31 107.67-20.86 106.9-21.41 105.19-21.41L105.19-21.41Q101.53-21.41 100.26-19.19L100.26-19.19ZM119.22-19.19L119.22 0 116.07 0 116.07-23.75 119.22-23.75 119.22-21.53 119.91-21.53Q120.54-22.75 121.59-23.41 122.64-24.07 124.2-24.07L124.2-24.07Q126.55-24.07 127.68-22.84 128.82-21.61 128.82-18.58L128.82-18.58Q128.82-17.92 128.77-17.02 128.72-16.11 128.62-15.41L128.62-15.41 125.6-15.41Q125.64-15.65 125.66-16.26 125.67-16.87 125.68-17.48 125.69-18.09 125.69-18.31L125.69-18.31Q125.69-20.12 125.08-20.76 124.47-21.41 123.13-21.41L123.13-21.41Q120.27-21.41 119.22-19.19L119.22-19.19ZM139.9 0.29L139.9 0.29Q135.87 0.29 134.15-0.98 132.43-2.25 132.31-5.13L132.31-5.13Q132.21-6.93 132.17-9.38 132.14-11.82 132.17-14.28 132.21-16.75 132.31-18.58L132.31-18.58Q132.43-21.53 134.2-22.8 135.97-24.07 139.9-24.07L139.9-24.07Q143.61-24.07 145.27-22.83 146.93-21.58 147.1-18.73L147.1-18.73Q147.15-17.87 147.2-15.75 147.25-13.62 147.05-11.23L147.05-11.23 135.36-11.23Q135.36-9.69 135.38-8.11 135.41-6.52 135.48-4.81L135.48-4.81Q135.5-3.47 136.51-2.95 137.51-2.44 139.8-2.44L139.8-2.44Q142.07-2.44 143-2.95 143.93-3.47 144.03-4.81L144.03-4.81Q144.1-6.15 144.03-8.47L144.03-8.47 147.05-8.47Q147.17-7.76 147.16-6.82 147.15-5.88 147.1-5.13L147.1-5.13Q146.93-2.25 145.36-0.98 143.78 0.29 139.9 0.29ZM135.36-13.82L135.36-13.82 144.07-13.82Q144.12-15.48 144.12-16.99 144.12-18.51 144.03-19.07L144.03-19.07Q143.93-20.29 142.98-20.81 142.02-21.34 139.9-21.34L139.9-21.34Q137.53-21.34 136.52-20.81 135.5-20.29 135.48-19.07L135.48-19.07Q135.41-17.65 135.37-16.36 135.33-15.06 135.36-13.82ZM156.72 0.27L156.72 0.27Q153.74 0.27 152.31-0.9 150.88-2.08 150.64-4.57L150.64-4.57Q150.61-5.05 150.58-5.54 150.54-6.03 150.59-6.49L150.59-6.49Q150.76-8.67 151.96-10.14 153.15-11.62 156.5-12.84L156.5-12.84Q157.87-13.33 159.38-13.72 160.89-14.11 162.38-14.48L162.38-14.48 162.38-18.99Q162.38-20.19 161.48-20.76 160.58-21.34 158.33-21.34L158.33-21.34Q156.38-21.34 155.36-20.85 154.35-20.36 154.25-19.07L154.25-19.07Q154.2-18.46 154.2-17.32 154.2-16.19 154.25-15.41L154.25-15.41 151.2-15.41Q151.15-16.02 151.1-16.99 151.05-17.97 151.13-18.73L151.13-18.73Q151.25-21.56 152.97-22.81 154.69-24.07 158.45-24.07L158.45-24.07Q162.38-24.07 163.91-22.71 165.43-21.34 165.46-18.21L165.46-18.21 165.46 0 162.38 0 162.38-2.25 161.7-2.25Q161.09-1.03 159.95-0.38 158.82 0.27 156.72 0.27ZM157.5-2.37L157.5-2.37Q161.02-2.37 162.36-4.47L162.36-4.47 162.36-11.87Q161.19-11.62 159.95-11.29 158.72-10.96 157.06-10.4L157.06-10.4Q155.08-9.67 154.42-8.72 153.76-7.76 153.67-6.49L153.67-6.49Q153.69-6.13 153.7-5.7 153.72-5.27 153.76-4.81L153.76-4.81Q153.94-3.64 154.94-3 155.94-2.37 157.5-2.37ZM175.2 0.29L175.2 0.29Q172.44 0.29 171.1-0.93 169.75-2.15 169.68-4.96L169.68-4.96Q169.58-6.96 169.55-9.35 169.51-11.74 169.55-14.21 169.58-16.67 169.68-18.82L169.68-18.82Q169.75-21.66 171.13-22.86 172.51-24.07 175.25-24.07L175.25-24.07Q177.27-24.07 178.43-23.45 179.59-22.83 180.45-21.53L180.45-21.53 181.08-21.53 181.08-31.69 184.21-31.69 184.21 0 181.08 0 181.08-2.25 180.37-2.25Q179.54-1.03 178.38-0.37 177.22 0.29 175.2 0.29ZM176.1-2.37L176.1-2.37Q179.79-2.37 181.08-4.59L181.08-4.59 181.08-19.19Q179.81-21.41 176.12-21.41L176.12-21.41Q174.42-21.41 173.65-20.86 172.88-20.31 172.85-19.09L172.85-19.09Q172.71-15.43 172.73-11.66 172.76-7.89 172.85-4.69L172.85-4.69Q172.9-3.49 173.65-2.93 174.39-2.37 176.1-2.37ZM195.34 0.29L195.34 0.29Q191.41 0.29 189.88-0.98 188.35-2.25 188.23-5.13L188.23-5.13Q188.18-5.88 188.17-6.82 188.16-7.76 188.26-8.47L188.26-8.47 191.11-8.47Q191.06-7.35 191.08-6.41 191.09-5.47 191.11-4.81L191.11-4.81Q191.14-3.47 192.05-2.95 192.97-2.44 195.34-2.44L195.34-2.44Q197.75-2.44 198.74-2.95 199.73-3.47 199.8-4.81L199.8-4.81Q199.88-5.64 199.9-6.04 199.93-6.45 199.9-7.2L199.9-7.2Q199.83-8.45 199.24-9.13 198.66-9.81 196.7-10.11L196.7-10.11 193.85-10.77Q191.65-11.23 190.45-11.94 189.26-12.65 188.77-13.78 188.28-14.92 188.18-16.65L188.18-16.65Q188.11-17.53 188.31-18.58L188.31-18.58Q188.35-21.53 189.9-22.8 191.45-24.07 195.56-24.07L195.56-24.07Q199.49-24.07 201.01-22.83 202.54-21.58 202.68-18.73L202.68-18.73Q202.68-17.99 202.67-17.05 202.66-16.11 202.59-15.41L202.59-15.41 199.63-15.41Q199.76-16.26 199.74-17.36 199.73-18.46 199.68-19.07L199.68-19.07Q199.66-20.36 198.79-20.85 197.92-21.34 195.56-21.34L195.56-21.34Q193.16-21.34 192.3-20.85 191.43-20.36 191.33-19.07L191.33-19.07Q191.31-18.46 191.26-18.05 191.21-17.65 191.23-16.94L191.23-16.94Q191.31-16.09 191.49-15.43 191.67-14.77 192.32-14.34 192.97-13.92 194.43-13.7L194.43-13.7 197.17-13.13Q200.15-12.52 201.51-11.24 202.88-9.96 202.88-7.37L202.88-7.37Q202.88-6.84 202.87-6.23 202.86-5.62 202.81-5.05L202.81-5.05Q202.64-2.2 201.01-0.95 199.39 0.29 195.34 0.29ZM210.76-4.37L210.76 0 206.44 0 206.44-4.37 210.76-4.37ZM229.49-15.41L229.49-15.41 226.41-15.41Q226.51-16.26 226.5-17.36 226.48-18.46 226.48-19.07L226.48-19.07Q226.46-20.36 225.47-20.85 224.48-21.34 222.24-21.34L222.24-21.34Q219.94-21.34 218.96-20.85 217.99-20.36 217.96-19.07L217.96-19.07Q217.79-15.23 217.79-11.93 217.79-8.62 217.96-4.81L217.96-4.81Q217.99-3.47 218.96-2.95 219.94-2.44 222.21-2.44L222.21-2.44Q224.46-2.44 225.46-2.95 226.46-3.47 226.48-4.81L226.48-4.81Q226.48-5.47 226.5-6.41 226.51-7.35 226.41-8.47L226.41-8.47 229.49-8.47Q229.61-7.76 229.6-6.82 229.58-5.88 229.54-5.13L229.54-5.13Q229.39-2.25 227.74-0.98 226.09 0.29 222.21 0.29L222.21 0.29Q218.3 0.29 216.61-0.98 214.91-2.25 214.79-5.13L214.79-5.13Q214.69-6.93 214.66-9.38 214.62-11.82 214.66-14.28 214.69-16.75 214.79-18.58L214.79-18.58Q214.91-21.53 216.63-22.8 218.35-24.07 222.24-24.07L222.24-24.07Q226.09-24.07 227.79-22.83 229.49-21.58 229.54-18.73L229.54-18.73Q229.58-17.99 229.6-17.05 229.61-16.11 229.49-15.41ZM240.69 0.29L240.69 0.29Q236.71 0.29 235.07-1.07 233.44-2.44 233.32-5.62L233.32-5.62Q233.17-7.42 233.12-9.63 233.07-11.84 233.12-14.09 233.17-16.33 233.32-18.16L233.32-18.16Q233.44-21.34 235.09-22.71 236.74-24.07 240.69-24.07L240.69-24.07Q244.69-24.07 246.29-22.71 247.89-21.34 248.01-18.16L248.01-18.16Q248.16-16.36 248.21-14.15 248.26-11.94 248.21-9.7 248.16-7.47 248.01-5.62L248.01-5.62Q247.89-2.47 246.29-1.09 244.69 0.29 240.69 0.29ZM240.69-2.44L240.69-2.44Q242.94-2.44 243.89-2.99 244.84-3.54 244.91-4.81L244.91-4.81Q245.16-8.62 245.16-11.89 245.16-15.16 244.91-18.97L244.91-18.97Q244.84-20.26 243.91-20.8 242.99-21.34 240.69-21.34L240.69-21.34Q238.4-21.34 237.46-20.8 236.52-20.26 236.44-18.97L236.44-18.97Q236.22-15.16 236.21-11.88 236.2-8.59 236.44-4.81L236.44-4.81Q236.49-3.54 237.48-2.99 238.47-2.44 240.69-2.44ZM255.58-19.19L255.58 0 252.43 0 252.43-23.75 255.58-23.75 255.58-21.53 256.19-21.53Q257.02-22.83 258.13-23.45 259.24-24.07 261.2-24.07L261.2-24.07Q265.13-24.07 266.03-21.34L266.03-21.34 266.69-21.34Q267.49-22.61 268.74-23.34 269.98-24.07 271.94-24.07L271.94-24.07Q274.55-24.07 275.84-22.86 277.14-21.66 277.14-18.82L277.14-18.82 277.14 0 274.01 0 274.01-19.09Q273.96-20.31 273.26-20.86 272.55-21.41 270.91-21.41L270.91-21.41Q267.67-21.41 266.4-19.12L266.4-19.12 266.4 0 263.27 0 263.27-19.09Q263.22-20.31 262.51-20.86 261.81-21.41 260.22-21.41L260.22-21.41Q256.75-21.41 255.58-19.19L255.58-19.19Z" opacity="1" transform="matrix(1,0,0,1,0,0)" fill="#000000" class="wordmark-text-0" data-fill-palette-color="quaternary" id="text-0"></path></svg></g></svg></g></svg></g></svg></g><g><svg viewBox="0 0 40.61194310979426 35.311781992669026" height="35.311781992669026" width="40.61194310979426"><g><svg xmlns="http://www.w3.org/2000/svg" xmlns:xlink="http://www.w3.org/1999/xlink" version="1.1" x="0" y="0" viewBox="1.9974941826111228 5.13 48.00501163477776 41.739999999999995" enable-background="new 0 0 52 52" xml:space="preserve" height="35.311781992669026" width="40.61194310979426" class="icon-icon-0" data-fill-palette-color="quaternary" id="icon-0"><g fill="#000000" data-fill-palette-color="quaternary"><g fill="#000000" data-fill-palette-color="quaternary"><path d="M26 11.39A5.27 5.27 0 0 0 31.163 7.131H20.837A5.27 5.27 0 0 0 26 11.389" fill="#000000" data-fill-palette-color="quaternary"></path></g><g fill="#000000" data-fill-palette-color="quaternary"><path d="M49.58 14.49L39.4 7.17A10.78 10.78 0 0 0 33.125 5.13C33.21 5.567 33.258 5.95 33.258 6.133 33.258 10.134 30.002 13.389 26 13.389S18.742 10.134 18.742 6.132C18.742 5.95 18.791 5.566 18.875 5.13 16.61 5.14 14.438 5.848 12.6 7.169L2.42 14.49C2.18 14.66 2.03 14.92 2 15.21 1.98 15.5 2.08 15.79 2.29 16L8.93 22.79C9.31 23.18 9.93 23.2 10.33 22.82L13.8 19.57V45.87C13.8 46.43 14.25 46.87 14.8 46.87H37.2C37.75 46.87 38.2 46.43 38.2 45.87V19.57L41.67 22.82C42.07 23.2 42.69 23.18 43.07 22.79L49.71 16C49.92 15.79 50.02 15.5 50 15.21 49.97 14.92 49.82 14.66 49.58 14.49M21.568 36.441C19.876 36.442 18.5 35.065 18.5 33.374S19.876 30.305 21.568 30.305 24.636 31.682 24.636 33.374 23.26 36.442 21.568 36.442M22.932 25.704C22.932 24.012 24.308 22.636 26 22.636S29.068 24.012 29.068 25.704 27.692 28.772 26 28.772 22.932 27.396 22.932 25.704M30.432 36.442C28.74 36.442 27.364 35.065 27.364 33.374S28.74 30.305 30.432 30.305 33.5 31.682 33.5 33.374 32.124 36.442 30.432 36.442" fill="#000000" data-fill-palette-color="quaternary"></path></g></g></svg></g></svg></g></svg></g></svg></g></svg></g></svg></g><defs></defs></svg><rect width="342.85155851775386" height="342.85155851775386" fill="none" stroke="none" visibility="hidden"></rect></g></svg></g></svg>